<svg xmlns="http://www.w3.org/2000/svg" width="500" height="500"><path fill="#397bbb" d="M243 93h15v6h13v7h14v7h14v7l2.809-.035 3.628-.028 3.622-.035C312 120 312 120 313 121v5h12c1.354 2.709 1.065 5.01 1 8l2.809-.035 3.628-.028 3.622-.035C339 134 339 134 340 135c.04 1.666.043 3.334 0 5l2.59-.035 3.348-.028 3.34-.035C352 140 352 140 353 141v6h13v7h14v7h14v6h13v8h7v13h7v35h-7v14h-7v7h-6v6h-7v7h-7v7h-7v7h-7v7h-7v7h-6c.03 1.207.03 1.207.063 2.438C360 290 360 290 359 291c-2 .04-4 .043-6 0v7h-7v7h-7v7h-6v7h-8v6h-6c.03 1.702.03 1.702.063 3.438C319 332 319 332 318 333c-2 .04-4 .043-6 0v6h-7v7h-6v7h-7c.03 1.207.03 1.207.063 2.438C292 358 292 358 291 359c-2 .04-4 .043-6 0 .03 1.454.03 1.454.063 2.938C285 365 285 365 284 366c-2 .04-4 .043-6 0v7h-7c.03 1.454.03 1.454.063 2.938C271 379 271 379 270 380c-2 .04-4 .043-6 0v7h-6c.03 1.454.03 1.454.063 2.938C258 393 258 393 257 394q-3.5.062-7 0v6h-20v8q-3.5.062-7 0c-1-1-1-1-1.098-3.941l.036-3.622.027-3.628L222 394h-5c.03 1.454.03 1.454.063 2.938C217 400 217 400 216 401c-1.666.04-3.334.043-5 0 .03 1.207.03 1.207.063 2.438C211 406 211 406 210 407c-1.52.072-3.042.084-4.562.063l-2.504-.028L201 407c-.818-2.87-1.128-5.425-1.133-8.406l-.004-2.504.012-2.59-.012-2.59.004-2.504.004-2.271c.13-2.158.537-4.06 1.129-6.135h-6v-7h-14v-7h-14v-6l-2.336.035-3.039.027-3.023.036C156 360 156 360 154 359v-6h-13v-7h-15v-6l-13-1v-7h-13v-7H86v-6h-7v-15h7v-7h14v-19H86v-7h-7c-1.002-5.346-.849-9.624 0-15h7v-6h7v-8h7v-6h6v-7h7v-7h7v-7h7l-.062-2.937C127 209 127 209 128 208c2-.04 4-.043 6 0v-7l2.938-.75L140 199c.969-2.032.969-2.032 1-4h6v-7h7v-7l6-1 1-5h6l-.062-3.437C167 168 167 168 168 167q3.5-.061 7 0v-6h6v-7h7v-7h7l-.062-2.937C195 141 195 141 196 140a100 100 0 0 1 5 0l-.125-2.375C201 135 201 135 203 133c3.125-.125 3.125-.125 6 0l-.062-2.937C209 127 209 127 210 126a100 100 0 0 1 5 0v-6h7v-7h7v-7h7v-7h7z"/><path fill="#2d3f71" d="M339 142h13v6h14v6h14v7h14v6h13v8h7v13h7v35h-7v14h-7v7h-6v6h-7v7h-7v7h-7v7h-7v7h-7v7h-6c.03 1.207.03 1.207.063 2.438C360 290 360 290 359 291c-2 .04-4 .043-6 0v7h-7v7h-7v7h-6v7h-8v6h-6c.03 1.702.03 1.702.063 3.438C319 332 319 332 318 333c-2 .04-4 .043-6 0v6h-7v7h-6v7h-7c.03 1.207.03 1.207.063 2.438C292 358 292 358 291 359c-2 .04-4 .043-6 0l.063 2.938C285 365 285 365 284 366c-2 .04-4 .043-6 0v7h-7l.063 2.938C271 379 271 379 270 380c-2 .04-4 .043-6 0v7h-6l.063 2.938C258 393 258 393 257 394q-3.5.062-7 0v6h-20v8q-3.5.062-7 0c-1-1-1-1-1.098-3.941l.036-3.622.027-3.628L222 394h-5l.063 2.938C217 400 217 400 216 401c-1.666.04-3.334.043-5 0 .03 1.207.03 1.207.063 2.438C211 406 211 406 210 407c-1.52.072-3.042.084-4.562.063l-2.504-.028L201 407c-.818-2.87-1.128-5.425-1.133-8.406l-.004-2.504.012-2.59-.012-2.59.004-2.504.004-2.271c.13-2.158.537-4.06 1.129-6.135h-6v-7h-14v-7h-14v-6l-2.336.035c-1.003.01-2.006.018-3.039.027l-3.023.036C156 360 156 360 154 359v-6h-13v-7h-15v-6l-13-1v-7h-13v-7H86v-6h-7v-15h7v-7h14v-19H86v-7h-7c-1.002-5.346-.849-9.624 0-15h7v-6h7v-8h7v-6h6v-7h7v-7h7v-7h7v-6h7v14h-7v6l-6 1-1 6h-6v7h-7v7h-7v14H87v6h13v7h13l-1-6-5-1v-6h7v6h13v7h14v7h14v7h13v7h14v6l3.867-.035 5.008-.027 2.55-.026 2.442-.01 2.254-.016C200 304 200 304 202 305v6h7v7h27v7h14v-7h14v-7h6v-7h7v-6h7v-7h7v-7h7v-7h6l1-6 6-1 1-6 6-1v-6h7v-7h7v-7h6v-7h7v-7h7v-6h7v-7h7v-7h7v-7h7v-7h6v-6h7v-14h-7v-7h-13v-7h-14v-6h-14v-6l-6-1z"/><path fill="#cba695" d="M107 284h7v7h13v7h14v7h7v6h14v7h20v7h13v7h14v6h15l-1 7h13v27l-6 1v35h-7c-1-1-1-1-1.098-3.941l.036-3.622.027-3.628L222 394h-5c.03 1.454.03 1.454.063 2.938C217 400 217 400 216 401c-1.666.04-3.334.043-5 0 .03 1.207.03 1.207.063 2.438C211 406 211 406 210 407c-1.52.072-3.042.084-4.562.063l-2.504-.028L201 407c-.818-2.87-1.128-5.425-1.133-8.406l-.004-2.504.012-2.59-.012-2.59.004-2.504.004-2.271c.13-2.158.537-4.06 1.129-6.135h-6v-7h-14v-7h-14v-6l-2.336.035-3.039.027-3.023.036C156 360 156 360 154 359v-6h-13v-7h-15v-6l-13-1v-7h-13v-7H86v-6h-7v-15h7v-7h14v-6h7z"/><path fill="#8cd0da" d="M243 141h21v7h13v7h14v7h13l1 6h13v7h14v7h13v14h-6v6h-7v7h-7v7h-27v-7h-14v-7h-14v-7h-13v-6h-14v-7h-13v-7h-7v-14h7v-6h6v-7h7z"/><path fill="#354a7b" d="M127 209h7v14h-7v6l-6 1-1 6h-6v7h-7v7h-7v14H87v6h13v7h13l-1-6-5-1v-6h7v6h13v7h14v7h14v7h13v7h14v6l3.867-.035 5.008-.027 2.55-.026 2.442-.01 2.254-.016C200 304 200 304 202 305v6h7v7l13 1v6h-13v6l13 1v6h-13v-6h-14v-7h-13v-7h-20v-7h-14v-6h-7v-7h-14v-7h-13v-7h-7v7h-7v-13H86v-7h-7c-1.002-5.346-.849-9.624 0-15h7v-6h7v-8h7v-6h6v-7h7v-7h7v-7h7z"/><path fill="#544f65" d="M86 298h14v13h7v7h20v7h14v7h14v6l13 1v6h14v7h7v7h13v21h-7v-7h-14v-7h-14v-6l-2.336.035-3.039.027-3.023.036C156 360 156 360 154 359v-6h-13v-7h-15v-6l-13-1v-7h-13v-7H86v-6h-7v-15h7z"/><path fill="#2f3364" d="M339 142h13v6h14v6h14v7h14v6h13v8h7v13h7v35h-7v14h-7v7l-7-1v-7h6v-13h-6l-1 12-6 1v7l-7-1a920 920 0 0 1-.062-5.437l-.036-3.06C386 231 386 231 387 230h6v-14h7v-14h-7v-6l-6-1v-6h6v-14h-7v-7h-13v-7h-14v-6h-14v-6l-6-1z"/><path fill="#cdaa99" d="M107 284h7v7h13v7h14v7h7v6h14v7h6v7l-6 1-1 6h7v6h-13v-6h-14v-7h-14v-7h-20v-7h-7v-13H86v-1h14v-6h7z"/><path fill="#7c7c89" d="M243 93h15v6h13v7h14v7h14v7l2.809-.035 3.628-.028 3.622-.035C312 120 312 120 313 121v5h12c1 2 1 2 1 8h12v7h-20v-7h-13v-7h-14v-6l-14-1v-6h-13v-7l-2.463.016q-5.487.029-10.974.046l-3.877.026-3.682.01-3.412.016C237 107 237 107 236 106q-.061-3.5 0-7h7zm-14 13h7v8h-6l.063 3.688c.057 3.399-.368 5.839-1.063 9.312l-11 2-1 5h-8v7h-6v-8h6l-.062-2.937C209 127 209 127 210 126a100 100 0 0 1 5 0v-6h7v-7h7z"/><path fill="#3c4c77" d="M214 318h22v7h14v7h-13v6h13v42h-7v6h-13v-13l6-1v-27h-13l1-7h-2v-6l-3.687.063c-3.233.005-6.162-.275-9.313-1.063v-6h13v-6h-8z"/><path fill="#f39aad" d="M203 359h20v7h6l1 42h-7c-1-1-1-1-1.098-3.941l.036-3.622.027-3.628L222 394h-5l.063 2.938C217 400 217 400 216 401c-1.666.04-3.334.043-5 0l.063 2.438C211 406 211 406 210 407c-1.52.072-3.042.084-4.562.063l-2.504-.028L201 407c-1.273-4.49-1.184-8.8-1.187-13.437l-.038-2.565c-.01-4.618.494-7.706 2.225-11.998.393-3.43.508-6.863.625-10.312z"/><path fill="#4d4785" d="M297 332h1v6h6l1-2v2h7v1h-7v7h-6v7h-7l.063 2.438C292 358 292 358 291 359c-2 .04-4 .043-6 0l.063 2.938C285 365 285 365 284 366c-2 .04-4 .043-6 0v7h-7l.063 2.938C271 379 271 379 270 380c-2 .04-4 .043-6 0v7h-6l.063 2.938C258 393 258 393 257 394q-3.5.062-7 0v6h-20v-13h7v6h13l1-7h5v-6h-5v-1h5v-7h7v-6h7v-7h7v-7h14v-7h6v-6h-6v-1h6z"/><path fill="#c9a595" d="M128 305h20v6h14v7h6v7l-6 1-1 6h7v6h-13v-6h-14v-7h-14z"/><path fill="#5d5d70" d="M162 346h13v6h14v7h13v21h-7v-7h-14v-7h-14v-6l-2.371.035c-1.012.01-2.024.018-3.066.027l-3.06.036C156 360 156 360 155 359q-.061-3.5 0-7h7z"/><path fill="#db549b" d="M202 332h7v6h15l-1 7h13v27l-6 1v27h-1v-34h-6v-7l-1.82.016q-4.059.029-8.118.046l-2.865.026-2.724.01-2.524.016C203 359 203 359 202 358c-.144-4.335-.042-8.662 0-13h14v-6l-1.793.035c-4.21.048-8.1.025-12.207-1.035z"/><path fill="#556689" d="M127 209h7v14h-7v6l-6 1-1 6h-6v7h-7v7h-7v14H87v-14h6v-8h7v-6h6v-7h7v-7h7v-7h7z"/><path fill="#2d2e5e" d="M86 298h14v13h7v7h-7v7H86v-6h-7v-15h7z"/><path fill="#4a5370" d="M339 142h13v6h14v6h14v7h14l-1 7h-20v-7h-14v-6h-14v-6l-6-1z"/><path fill="#3c78b7" d="M237 339h13v41h-7v6h-13v-7h7v-6h6v-21h-6z"/><path fill="#5c657f" d="M175 162h7v13l-14 1v6h-6l.063 3.375C162 189 162 189 161 191c-2.562.625-2.562.625-5 1l-1 4h-7v13h-13v-6l6-1v-7h6v-7h7v-7l6-1 1-5h6l-.062-3.437C167 168 167 168 168 167q3.5-.061 7 0z"/><path fill="#32456f" d="M155 298h27v6l13 1v6h-13v7h-20v-7h6v-7h-13z"/><path fill="#54668d" d="M243 93h13v7q-2.97.039-5.937.063l-3.34.035C244 100 244 100 243 99zm-7 6h7v8c-2 .043-4 .04-6 0-1-1-1-1-1.062-4.562zm-7 7h7v8h-6l.063 3.688c.057 3.399-.368 5.839-1.063 9.312l-11 2-1 5h-8v7h-6v-8h6l-.062-2.937C209 127 209 127 210 126a100 100 0 0 1 5 0v-6h7v-7h7z"/><path fill="#4d4879" d="M380 250h13l1 7h-7v7h-7v7h-7v7h-7v7h-6l.063 2.438C360 290 360 290 359 291c-2 .04-4 .043-6 0v-7h6v-7h6l1-14h6v-7h8z"/><path fill="#49486a" d="M148 332h7v6l13 1v6h14v7h-7v-6h-13v6h-7v7h-1v-6h-13v-7h-14v-1h14v-7h7z"/><path fill="#2b3066" d="M338 298h7v7h-6v7h-6v7h-8v6h-7v6h-6a722 722 0 0 1-.187-9.312l-.077-2.67-.029-2.569-.048-2.364c.429-2.622 1.294-3.449 3.341-5.085l2-1 1-3q2.988-.57 6-1c1 1 1 1 1.063 4.063L325 311h7v-7h6z"/><path fill="#2f2f5c" d="M121 325h20v7h7v6h-7v7l-15 1v-3h2v-4h6v-7h-7v6h-13v-6h7z"/><path fill="#c6a496" d="M107 284h7v7h13v7h-13v7h-7v6h-7v-13H86v-1h14v-6h7z"/><path fill="#2c2332" d="M298 121h13v7l3.027-.254 3.91-.308 3.903-.317L325 127c1 1 1 1 1 7h12v7h-20v-7h-13v-7h-7z"/><path fill="#c7a494" d="M168 318h14v7h-7l1 6 6 1c.043 2 .04 4 0 6-1 1-1 1-4.062 1.063L175 339v6h-7v-6h-7v-1h7v-6h-7c-.043-2-.04-4 0-6 1-1 1-1 4.063-1.062L168 325z"/><path fill="#5d98c5" d="M257 305h6v6l-6 1v6h-7v7h-14v-7h-13v-7h14v7h6l-.062-2.937C243 312 243 312 244 311a153 153 0 0 1 6.563-.062l3.628.027L257 311z"/><path fill="#445787" d="M100 237h7v13h-7v14H87v-14h6v-8h7z"/><path fill="#302432" d="M407 176h6v13h7l1 34h-7c-.91-7.4-1.124-14.675-1.062-22.125l.013-3.187q.018-3.844.049-7.688l-6-2z"/><path fill="#886a61" d="M229 345h7v27l-6 1v27h-1v-34h-6v-14h7z"/><path fill="#5e97c2" d="M243 107h21v7h13v7h-14v-7l-3.25.5c-5.573.712-11.143.584-16.75.5v5h-6v-6h6z"/><path fill="#caa796" d="M189 332h13v6l14 1v6h-14v7h-7l-1-13-5-1z"/><path fill="#3a629f" d="M100 257h7v6h7v1h-7v6l2.438-.062C112 270 112 270 113 271v6h-13v-7H87v-6h13z"/><path fill="#5c5688" d="M400 223h6v13h-6v7h6v1h-5v6h-7v6h-1v-6h-7v-7h7v-7l6-1-.062-3.75c-.006-2.914.132-5.46 1.062-8.25"/><path fill="#5a5e70" d="M86 250h1v20h13v8H86v-7h-7c-1.002-5.346-.849-9.624 0-15h7z"/><path fill="#53678e" d="M222 113h5l-4 1v6h7l-1 7-11 2-1 5h-8v7h-6v-8h6l-.062-2.937C209 127 209 127 210 126a100 100 0 0 1 5 0v-6h7z"/><path fill="#5f98c3" d="M107 243h7v14h7v6h-14v-6h-7v-7h7z"/><path fill="#6199c3" d="M373 169h13v6h7v7h-7v6h-7v-13h-6z"/><path fill="#554f81" d="M338 298h7v7h-6v7h-6v7h-8v6h-7v-7h7v-7h7v-7h6z"/><path fill="#59566c" d="M393 162h1v5h13v8h7v13h7v34h-1v-33h-7v-13h-6v12l4 1 2 1v18h-1l-1-17-5 1v-16h-12v-1h12v-6h-13v6h-7v-7h7z"/><path fill="#564f82" d="M345 284h7v7h-7v6h7v1h-6v7h-1v-7h-7v6h-6v7h-7v-7h6l-1-7h8v-6l6-1z"/><path fill="#d8aab3" d="M201 381h3v23l4 1v-6h7l1-7q3.5-.062 7 0c1 1 1 1 1.133 2.96l-.008 2.415.008 2.398C224 402 224 402 223 405h6v-5h1v8q-3.5.062-7 0c-1-1-1-1-1.098-3.941l.036-3.622.027-3.628L222 394h-5l.063 2.938C217 400 217 400 216 401c-1.666.04-3.334.043-5 0l.063 2.438C211 406 211 406 210 407c-1.52.072-3.042.084-4.562.063l-2.504-.028L201 407c-.823-2.882-1.128-5.448-1.133-8.441l-.004-2.518.012-2.603-.012-2.616.004-2.513.004-2.288C200 384 200 384 201 381"/><path fill="#2d3d69" d="M214 318h22v7h-13v13h-1v-6l-3.687.063c-3.233.005-6.162-.275-9.313-1.063v-6h13v-6h-8z"/><path fill="#6d6a77" d="M86 298c2.21 3.314 2.225 4.345 2.125 8.188l-.055 2.73L88 311h6v7h-7v7h-1v-6h-7v-15h7z"/><path fill="#535280" d="m311 318 2 1-1 12h6v-6h1q.062 3.5 0 7c-1 1-1 1-4.062 1.063L312 333v5h-14v-6l6-1v-6h-8l2-2c3.04.023 3.04.023 6.625.375l3.602.336L311 324z"/><path fill="#322532" d="M230 387h7v6h13v7h-20z"/><path fill="#423b91" d="M243 380h13v6h-5l-1 7h-13v-6h-7v-1h13z"/><path fill="#2f2736" d="M195 325h14v6l13 1v6h-13v-6h-14z"/><path fill="#312838" d="M162 346h13v6h-7l.063 3.438C168 359 168 359 167 360c-1.831.099-3.666.13-5.5.125l-3.031.008C156 360 156 360 155 359q-.061-3.5 0-7h7z"/><path fill="#2c4171" d="M237 352h6v21h-6v6h-7v-6l6-1z"/><path fill="#2a325e" d="M196 311h13v7l13 1v6h-13l-1-6-12-1z"/><path fill="#cdaea7" d="M107 305h7v6l13 1v6h-20z"/><path fill="#2d3061" d="M189 359h13v7l-6 1-1 5h-13v-6h7z"/><path fill="#2e3061" d="M175 352h13v7h-6v6h-13v-6h6z"/><path fill="#2f2f5b" d="M121 325h13v7h-7v6h-13v-6h7z"/><path fill="#696581" d="M264 373h6v7h-6v7h-6l.063 2.938C258 393 258 393 257 394q-3.5.062-7 0l1-8h5v-6h-5v-1h13z"/><path fill="#2e2532" d="M339 142h13v6h14v6h-13l-2-6h-12z"/><path fill="#2e2f5d" d="M107 319h13v6h-6v6h-14v-6h7z"/><path fill="#5a6e93" d="M175 162h7v13q-3.469.29-6.937.563l-3.903.316L168 176c-1-1-1-1-1.125-4.5C167 168 167 168 168 167q3.5-.061 7 0z"/><path fill="#574e77" d="M365 270h7v8h-6v7h-6l.063 2.438C360 290 360 290 359 291c-2 .04-4 .043-6 0v-7h6v-7h6z"/><path fill="#4b84b7" d="M134 216h7v7h-5l-1 7h-7v6h-7v-7h6v-6h7z"/><path fill="#2b293a" d="m322 127 4 1v6h12v7h-20v-7l6-1v-5z"/><path fill="#5e9bc4" d="M304 216h21v7h-21z"/><path fill="#49618d" d="M127 209h7v14h-13l-1-8h7z"/><path fill="#34232b" d="M100 277h13v7h-6v7h-7z"/><path fill="#3b5789" d="M195 141h7v14h-13v-7h6z"/><path fill="#c8a697" d="M128 312h6v6h7v7h-14z"/><path fill="#365d9c" d="M237 339h13v6l-6 1-1 6h-6z"/><path fill="#2a3065" d="M250 325h7l-1 7-6 1v5h-13v-6h13z"/><path fill="#54668d" d="M256 93h2v6h12v1h-13v7h-14v-8l13 1z"/><path fill="#57617b" d="M297 114h2v6l2.809-.035 3.628-.028 3.622-.035C312 120 312 120 313 121v5h12c-3.42 2.28-4.682 2.22-8.687 2.125l-3.012-.055L311 128v-7h-13v6h-7v-6l-3-1h9z"/><path fill="#64a1c6" d="M291 155h7v6h14v7h-7l-1-6h-13z"/><path fill="#2c2e64" d="M251 366h12v6h-7v7h-5z"/><path fill="#676980" d="m338 134 2 1v5l2.59-.035 3.348-.028 3.34-.035C352 140 352 140 353 141v6h13v1h-14v-6h-13v6h-7v-7h6z"/><path fill="#2f252f" d="M154 343v9h-13v-6c4.276-2.851 7.932-3.145 13-3"/><path fill="#4c4679" d="M352 277h7v7h-6v14l-8-1v-6h7z"/><path fill="#81655c" d="M202 332h7v6h15l-1 7h-7v-6l-1.793.035c-4.21.048-8.1.025-12.207-1.035z"/><path fill="#9b7269" d="M202 345h14v7h-14z"/><path fill="#3e2d32" d="M127 291h14v7h-14z"/><path fill="#3c5a93" d="M127 284h14v7h-14z"/><path fill="#283361" d="M127 277h14v7h-14z"/><path fill="#5f9dc3" d="M216 161h7v14h-7z"/><path fill="#5e9cc3" d="M243 134h14v7h-14z"/><path fill="#efc8b7" d="M216 345q3.219-.04 6.438-.062l3.62-.036C229 345 229 345 230 346v6h-14z"/><path fill="#3d343d" d="M79 257h7v13h-7c-1.016-4.63-.838-8.345 0-13"/><path fill="#e5abb7" d="M201 381h3c.029 3.792.047 7.583.063 11.375l.025 3.273.01 3.125.016 2.889C204 404 204 404 203 406h-2c-.927-2.78-1.129-4.472-1.133-7.344l-.004-2.527.012-2.629-.012-2.629.004-2.527.004-2.307C200 384 200 384 201 381"/><path fill="#32212b" d="M182 311v7h-14v-6c4.763-.953 9.167-1.083 14-1"/><path fill="#c7a597" d="M100 298h7c.838 4.655 1.016 8.37 0 13h-7z"/><path fill="#375896" d="M237 325h13v7h-13z"/><path fill="#2f222f" d="M182 318h13v7h-13z"/><path fill="#3e78b3" d="M223 318h13v7h-13z"/><path fill="#302633" d="M87 318h13v7H87z"/><path fill="#2f2530" d="M114 284h13v7h-13z"/><path fill="#c2a395" d="M107 284h7v13h-7z"/><path fill="#4470a5" d="M114 277h13v7h-13z"/><path fill="#629fc5" d="M345 182h7v13h-7z"/><path fill="#2c2b3b" d="M257 100h13v7h-13z"/><path fill="#3f5f93" d="M196 318q2.969-.04 5.938-.062l3.34-.036C208 318 208 318 209 319v6h-13z"/><path fill="#2f2d43" d="M209 128h7v6h-7v7h-6v-8h6z"/><path fill="#61657a" d="M393 162h1v5h13v8h-1v-6h-13v6h-7v-7h7z"/><path fill="#c3a195" d="M141 325h14v6l-14 1z"/><path fill="#676191" d="M291 339h6v6h-6v7h-7v-7l6-1z"/><path fill="#3e5d95" d="M141 291h13v6c-4.41 1.102-8.484 1.077-13 1z"/><path fill="#273264" d="M359 216h6c.934 3.01 1.044 3.867 0 7l-2.5.938L360 225c-.887 2.041-.887 2.041-1 4h-6v-6h6z"/><path fill="#2c4176" d="M243 380h7c-.187 1.813-.187 1.813-1 4l-2.5 1.375c-2.837 1.442-2.837 1.442-3.312 4.813L243 393h-6v-6h-7v-1h13z"/><path fill="#f2d0b9" d="m114 311 13 1v6h-13z"/><path fill="#bf6f8e" d="M223 359h7v41h-1v-34h-6z"/><path fill="#32252f" d="M128 339h13v6l-15 1v-3h2z"/><path fill="#f4cfba" d="M114 298h13v6l-13 1z"/><path fill="#283265" d="M346 230h6v7l-7 1 1 5c-2 .043-4 .04-6 0-1-1-1-1-1.062-3.562L339 237h7z"/><path fill="#3e568a" d="m140 199 2 4h-7l1 5 5 1v7h-7v-7h-6v-1h6v-7z"/><path fill="#2c3065" d="M271 352h6v7h-7v6h-6l1-7h5z"/><path fill="#355c9a" d="M148 202v7h-13v-6c4.386-.702 8.558-1.108 13-1"/><path fill="#2b3063" d="M291 332h6v6h-6l.063 2.938C291 344 291 344 290 345c-2 .04-4 .043-6 0v-6h6z"/><path fill="#2e232f" d="M182 366h13v6h-13z"/><path fill="#2e2f5b" d="M162 346h13v6h-13z"/><path fill="#31232b" d="M114 332h13v6h-13z"/><path fill="#293163" d="M223 325h13v6h-13z"/><path fill="#2a243a" d="M182 305h13v6h-13z"/><path fill="#395993" d="M169 305h13v6h-13z"/><path fill="#2e2430" d="M155 305h13v6h-13z"/><path fill="#f6d1bb" d="M128 305h13v6h-13z"/><path fill="#cca795" d="M114 305h13v6h-13z"/><path fill="#2e232e" d="M80 305h6v13h-6z"/><path fill="#3a5b99" d="M155 298h13v6h-13z"/><path fill="#2e2331" d="M141 298h13v6h-13z"/><path fill="#283060" d="M155 291h13v6h-13z"/><path fill="#2e2333" d="M407 223h6v13h-6z"/><path fill="#453c9c" d="M407 209h6v13h-6z"/><path fill="#30222e" d="M393 169h13v6h-13z"/><path fill="#292431" d="M380 162h13v6h-13z"/><path fill="#2d242e" d="M366 155h13v6h-13z"/><path fill="#2e2330" d="M284 114h13v6h-13z"/><path fill="#2e242f" d="M271 107h13v6h-13z"/><path fill="#32242d" d="m226.723 338.902 3.34.036 3.347.027L236 339v6h-13c0-5.964 0-5.964 3.723-6.098"/><path fill="#2f2432" d="M100 325q2.969-.04 5.938-.062l3.34-.036C112 325 112 325 113 326v5h-13z"/><path fill="#463c98" d="M313 318h5v13h-6q-.04-2.97-.062-5.937l-.036-3.34C312 319 312 319 313 318"/><path fill="#2f232f" d="M169 359h12l1 6h-13z"/><path fill="#30232c" d="M87 298h13v6H88z"/><path fill="#2f222c" d="M311 128h13v5c-3.015 1.005-5.042 1.103-8.187 1.063l-2.731-.028L311 134z"/><path fill="#4173af" d="m317 259 1 4-6 1-1 6-6 1-1 6h-6v-2l4-1 1-5 2.938-.75L309 267l.438-1.875C310 263 310 263 311.602 261.852c1.774-.997 3.584-1.929 5.398-2.852"/><path fill="#453c9c" d="M400 223h6v13l-6-1z"/><path fill="#2d222f" d="M407 176h6v13l-6-1z"/><path fill="#2e232d" d="M244 94h12v6h-12z"/><path fill="#273164" d="M107 264h7v6h13v1h-13v13h-1l-1-13-5-1z"/><path fill="#274374" d="m322 127 4 1-1 13h-7v-7l6-1v-5z"/><path fill="#4b6491" d="M202 134h1v7h6v7h-7v-7h-6v-1h5l-.062-2.437C201 135 201 135 202 134"/><path fill="#d06191" d="M202 352h21v7c-3.312.029-6.625.047-9.937.063l-2.866.025-2.724.01-2.524.016C203 359 203 359 202 358zm1 1 1 5h16l1-5z"/><path fill="#99827c" d="M100 291h7v7H86v-1h14z"/><path fill="#324269" d="M373 161h21v1h-14v6h-7z"/><path fill="#49457e" d="M277 352h7v6h7v1h-6v6h-1v-6h-7z"/><path fill="#586485" d="M106 230h1v6h7v7h-7v-6h-7v-1h6z"/><path fill="#c19ba0" d="m189 354 2 1c1.704.226 3.413.409 5.125.563l2.758.253L201 356v2h2v21h-1v-20h-13z"/><path fill="#2e232c" d="M87 272h12v5H87z"/><path fill="#3b5f97" d="M237 373h6l1 6h6v1h-20v-1h7z"/><path fill="#515f8c" d="M141 338h7v5c-4.709 2.794-8.507 3.39-13.875 3.188l-2.086-.042c-1.68-.035-3.36-.088-5.039-.146v-1h14z"/><path fill="#385692" d="M359 229h7v8h-7z"/><path fill="#826a70" d="M148 332h7v6h6v1h-13z"/><path fill="#7f6358" d="M141 304q3.219-.04 6.438-.062l3.62-.036C154 304 154 304 155 305c.04 2 .043 4 0 6h-7v-6h-7z"/><path fill="#5a9ac1" d="M304 161h8v7h-7z"/><path fill="#5d97c4" d="M148 202h8l-1 7h-7z"/><path fill="#2e4677" d="M343 148h8l2 7h-8v-6z"/><path fill="#54678e" d="m236 106 7 1v7h-7z"/><path fill="#31272f" d="M277 359h7v7h-7z"/><path fill="#564e8e" d="M270 359h7v7h-7z"/><path fill="#f1cdb8" d="M195 345h7v7h-7z"/><path fill="#8d7268" d="M175 345h7v7h-7z"/><path fill="#332228" d="m209 332 11 2v4h-11z"/><path fill="#826666" d="M134 325h7v7h-7z"/><path fill="#435386" d="M100 318h7v7h-7z"/><path fill="#2f2737" d="M318 318h7v7h-7z"/><path fill="#3a5a96" d="M250 318h7v7h-7z"/><path fill="#efcbb7" d="M161 318h7v7h-7z"/><path fill="#937061" d="M148 318h7v7h-7z"/><path fill="#f1cdb8" d="M134 318h7v7h-7z"/><path fill="#3a548d" d="M87 311h7v7h-7z"/><path fill="#3b538f" d="M168 291h7v7h-7z"/><path fill="#496d9a" d="M127 284h7v7h-7z"/><path fill="#375c9d" d="M141 277h7v7h-7z"/><path fill="#5d9ac5" d="M141 270h7v7h-7z"/><path fill="#453b94" d="M386 243h7v7h-7z"/><path fill="#5d9cbf" d="M325 209h7v7h-7z"/><path fill="#5f9fc3" d="M291 209h7v7h-7z"/><path fill="#5f9ec1" d="M277 202h7v7h-7z"/><path fill="#60a1c5" d="M257 195h13v7h-6v-6h-7z"/><path fill="#3d5691" d="M386 182h7v7h-7z"/><path fill="#5b98c1" d="M236 182h7v7h-7z"/><path fill="#5d9cc2" d="M332 175h7v7h-7z"/><path fill="#61a0c4" d="M223 175h7v7h-7z"/><path fill="#5e9dc1" d="M318 168h7v7h-7z"/><path fill="#62a0c6" d="M277 148h7v7h-7z"/><path fill="#5c9cc1" d="M236 141h7v7h-7z"/><path fill="#355a9b" d="M209 134h7v7h-7z"/><path fill="#c6a393" d="M223 345c2-.043 4-.04 6 0 1 1 1 1 1.063 4.063L230 352h-7z"/><path fill="#8b6b5d" d="M203 346h9l1 5h-10z"/><path fill="#453b93" d="M322.063 310.938 325 311v7h-7c-.043-2-.04-4 0-6 1-1 1-1 4.063-1.062"/><path fill="#2c3163" d="M345 277h7v7c-2 .043-4 .04-6 0-1-1-1-1-1.062-4.062z"/><path fill="#2e2d3d" d="M100 277h13v5l-12-3v12h-1z"/><path fill="#282539" d="M128 291h13v6h-5l-1-4h-6z"/><path fill="#2a253b" d="M141 284h7l-1 7h-6z"/><path fill="#5e9ac6" d="M134 216h7v7l-7-1z"/><path fill="#3a5e98" d="M380 189h6v6h-6v7h-1a888 888 0 0 1-.062-5.375l-.036-3.023C379 191 379 191 380 189"/><path fill="#4070aa" d="M264 311v7h-7v-6c2.49-.687 4.379-1 7-1"/><path fill="#385a96" d="M155 284h6l1 7h-7z"/><path fill="#2c3065" d="M278 345h6v7h-7z"/><path fill="#8b6e65" d="M202 332h7v7l-7-1z"/><path fill="#292f62" d="M148 284h6v7h-7z"/><path fill="#2c2334" d="M196 373h6v7h-6z"/><path fill="#2e2641" d="M270 366h7v6h-7z"/><path fill="#332d51" d="M189 359h13v5l-13-3z"/><path fill="#30243b" d="M284 352h7v6h-7z"/><path fill="#3c5690" d="M168 352h7v6h-7z"/><path fill="#30233b" d="M291 345h6v7h-6z"/><path fill="#3d5592" d="M155 345h6v7h-6z"/><path fill="#cba998" d="M209 339h7v6h-7z"/><path fill="#f4d0b9" d="M202 339h7v6h-7z"/><path fill="#f4d0bc" d="M175 339h7v6h-7z"/><path fill="#4276b0" d="M223 332h7v6h-7z"/><path fill="#8f6d5f" d="M175 332h7v6h-7z"/><path fill="#f3ceb9" d="M161 332h7v6h-7z"/><path fill="#3c5892" d="M209 325h7v6h-7z"/><path fill="#8e7065" d="M189 325h6v7h-6z"/><path fill="#f4d0ba" d="M175 325h7v6h-7z"/><path fill="#f3d0ba" d="M148 325h7v6h-7z"/><path fill="#896f70" d="M121 318h6v7h-6z"/><path fill="#3a5b97" d="M223 318h6v7h-6z"/><path fill="#385997" d="M209 312h7v6h-7z"/><path fill="#4277b3" d="M182 312h7v6h-7z"/><path fill="#8e6d5d" d="M134 312h7v6h-7z"/><path fill="#30233e" d="M325 311h6v7h-6z"/><path fill="#86695e" d="M162 311h6v7h-6z"/><path fill="#619ac7" d="M209 305h7v6h-7z"/><path fill="#f4d0b9" d="M107 305h7v6h-7z"/><path fill="#2f2c52" d="M88 304h12v7h-1v-6h-3v3h-2l-1 2a283 283 0 0 1-5-5z"/><path fill="#3a5894" d="M182 298h7v6h-7z"/><path fill="#292638" d="M168 298h7v6h-7z"/><path fill="#8c6d63" d="M134 298h7v6h-7z"/><path fill="#302247" d="M345 291h7v6h-7z"/><path fill="#8d6f66" d="M121 291h6v7h-6z"/><path fill="#f4cfba" d="M107 291h7v6h-7z"/><path fill="#32283d" d="M353 284h6v7h-6z"/><path fill="#395793" d="M121 277h6v7h-6zm6-6h7v6h-7z"/><path fill="#2f2537" d="M366 270h6v7h-6z"/><path fill="#433c97" d="M359 270h6v7h-6z"/><path fill="#2b3063" d="M359 264h7v6h-7z"/><path fill="#5e9ac9" d="M127 264h7v6h-7z"/><path fill="#2e2437" d="M386 250h7v6h-7z"/><path fill="#2d2737" d="M87 250h6v7h-6z"/><path fill="#2f2637" d="M100 237h7v6h-7z"/><path fill="#2b2735" d="M107 230h7v6h-7z"/><path fill="#2b2637" d="M121 216h6v7h-6z"/><path fill="#2c2632" d="M128 209h6v7h-6z"/><path fill="#5f9fc3" d="M332 202h6v7h-6z"/><path fill="#375c96" d="M148 196h7v6h-7z"/><path fill="#302734" d="M141 196h7v6h-7z"/><path fill="#609fc3" d="M250 189h7v6h-7z"/><path fill="#313d6d" d="M400 182h6v7h-6z"/><path fill="#385c98" d="M162 182h6v7h-6z"/><path fill="#385994" d="M168 176h7v6h-7z"/><path fill="#2d2735" d="M162 175h6v7h-6z"/><path fill="#2d2634" d="M175 162h7v6h-7z"/><path fill="#619fc5" d="M223 155h7v6h-7z"/><path fill="#2b2736" d="M182 155h7v6h-7z"/><path fill="#609fc5" d="M230 148h6v7h-6z"/><path fill="#609dc4" d="M264 141h6v7h-6z"/><path fill="#312735" d="M196 141h6v7h-6z"/><path fill="#2f2433" d="M209 128h7v6h-7z"/><path fill="#2b2637" d="M216 121h7v6h-7z"/><path fill="#395c94" d="M277 114h7v6h-7z"/><path fill="#2d2734" d="M223 114h7v6h-7z"/><path fill="#3c5c94" d="M264 107h6v7h-6z"/><path fill="#2b2735" d="M230 107h6v7h-6z"/><path fill="#2d2839" d="M237 100h6v7h-6z"/><path fill="#293166" d="M257 319h7c.043 1.666.04 3.334 0 5-1 1-1 1-4.062 1.063L257 325z"/><path fill="#293264" d="M278 298h6c.043 2 .04 4 0 6-1 1-1 1-3.562 1.063L278 305z"/><path fill="#395791" d="M107 270a100 100 0 0 1 5 0c1 1 1 1 1.063 4.063L113 277h-6z"/><path fill="#313d66" d="M305 127a100 100 0 0 1 5 0c1 1 1 1 1.063 4.063L311 134h-6z"/><path fill="#30222c" d="M338 135v6c-3.958-.565-6.666-1.809-10-4 3.402-2.094 6.053-2.18 10-2"/><path fill="#2a3062" d="m332 290 6 1v6h-6z"/><path fill="#2e2e6b" d="M386 243v7h-6v-6c3-1 3-1 6-1"/><path fill="#283162" d="M380 196h6l1 6h-7z"/><path fill="#28305f" d="M189 305h6v6h-7z"/><path fill="#2c2e66" d="M355.563 270.938 358 271l1 6h-7a100 100 0 0 1 0-5c1-1 1-1 3.563-1.062"/><path fill="#647190" d="M215 121h1v6h7l-2 2h-3l-1 5h-1v-6h-7l1-2h5z"/><path fill="#2f2433" d="M251 386h5v7h-6z"/><path fill="#2c2235" d="M264 373h6v7l-6-1z"/><path fill="#436e9f" d="M353 155h6v6h14v1h-15l-1-4-4-1z"/><path fill="#2e2232" d="M257 380h6v6h-6z"/><path fill="#2f232e" d="M230 373h6v6h-6z"/><path fill="#443c9b" d="M264 366h6v6h-6z"/><path fill="#3f5792" d="M196 366h6v6h-6z"/><path fill="#3b5993" d="M182 359h6v6h-6z"/><path fill="#34252a" d="M182 352h6v6h-6z"/><path fill="#2e232d" d="M298 339h6v6h-6z"/><path fill="#3e79b6" d="M237 339h6v6h-6z"/><path fill="#8c6c5c" d="M189 339h6v6h-6z"/><path fill="#876c67" d="M162 339h6v6h-6z"/><path fill="#2e2233" d="M305 332h6v6h-6z"/><path fill="#453b9b" d="M298 332h6v6h-6z"/><path fill="#38599a" d="M230 332h6v6h-6z"/><path fill="#f3d2bc" d="M189 332h6v6h-6z"/><path fill="#3e5792" d="M128 332h6v6h-6z"/><path fill="#2e2234" d="M312 325h6v6h-6z"/><path fill="#463d97" d="M305 325h6v6h-6z"/><path fill="#2a3065" d="M298 325h6v6h-6z"/><path fill="#8d6c5c" d="M162 325h6v6h-6z"/><path fill="#3c5896" d="M114 325h6v6h-6z"/><path fill="#2b2f66" d="M305 318h6v6h-6z"/><path fill="#2b2435" d="M196 312h6v6h-6z"/><path fill="#2e2132" d="M332 305h6v6h-6z"/><path fill="#443e95" d="M325 305h6v6h-6z"/><path fill="#292f64" d="M271 305h6v6h-6z"/><path fill="#355a9a" d="M189 304q2.688-.04 5.375-.062l3.023-.036C200 304 200 304 202 305v5l-5-1-1-3-7-1z"/><path fill="#4279b3" d="M169 305h6v6h-6z"/><path fill="#8c6c5a" d="M121 305h6v6h-6z"/><path fill="#2f2234" d="M339 298h6v6h-6z"/><path fill="#463c9a" d="M332 298h6v6h-6z"/><path fill="#2a2f63" d="M325 298h6v6h-6z"/><path fill="#2a3060" d="M175 298h6v6h-6z"/><path fill="#4378b2" d="M155 298h6v6h-6z"/><path fill="#8b6c5e" d="M107 298h6v6h-6z"/><path fill="#2d2335" d="M155 291h6v6h-6z"/><path fill="#2c2f65" d="M339 284h6v6h-6z"/><path fill="#2b2534" d="M298 278h6v6h-6z"/><path fill="#2e2435" d="M128 277h6v6h-6z"/><path fill="#292436" d="M114 271h6v6h-6z"/><path fill="#2e2233" d="M373 264h6v6h-6z"/><path fill="#273162" d="M312 264h6v6h-6z"/><path fill="#375a98" d="M114 264h6v6h-6z"/><path fill="#4079b6" d="M87 264h6v6h-6z"/><path fill="#2e2132" d="M380 257h6v6h-6z"/><path fill="#443d99" d="M373 257h6v6h-6z"/><path fill="#2a3062" d="M366 257h6v6h-6z"/><path fill="#292f63" d="M94 257h6v6h-6z"/><path fill="#463b9a" d="M380 250h6v6h-6z"/><path fill="#2b2f64" d="M373 250h6v6h-6z"/><path fill="#312632" d="M394 244h6v6h-6z"/><path fill="#273063" d="M332 244h6v6h-6z"/><path fill="#2e2330" d="M94 244h6v6h-6z"/><path fill="#2c2334" d="M400 237h6v6h-6z"/><path fill="#619bc7" d="M114 237h6v6h-6z"/><path fill="#629bc5" d="M121 230h6v6h-6z"/><path fill="#395994" d="M114 230h6v6h-6z"/><path fill="#629bc4" d="M128 223h6v6h-6z"/><path fill="#2c2432" d="M114 223h6v6h-6z"/><path fill="#639bc4" d="M373 196h6v6h-6z"/><path fill="#5e9dc3" d="M339 196h6v6h-6z"/><path fill="#2e2331" d="M148 189h6v6h-6z"/><path fill="#2d2331" d="M155 182h6v6h-6z"/><path fill="#2b243a" d="M393 169h4l1 3c3.008 1.225 3.008 1.225 6 2v1h-11z"/><path fill="#292536" d="M169 169h6v6h-6z"/><path fill="#34212b" d="M381 162h7l1 2-1 3h-7z"/><path fill="#629bc4" d="M366 162h6v6h-6z"/><path fill="#2c2430" d="M189 148h6v6h-6z"/><path fill="#5f9cc4" d="M230 121h6v6h-6z"/><path fill="#3a5994" d="M230 114h6v6h-6z"/><path fill="#986668" d="M223 352c3.875.875 3.875.875 5 2a208 208 0 0 1 2 5h-7z"/><path fill="#302d4d" d="M154 343v4c-8.571.286-8.571.286-12-2 4.12-1.292 7.668-2.263 12-2"/><path fill="#2a3061" d="M264 312h6v6c-1.666.043-3.334.04-5 0-1-1-1-1-1.062-3.562z"/><path fill="#283162" d="M294.563 284.938 297 285c1.245 2.49.777 3.41 0 6h-5a88 88 0 0 1-1-5c1-1 1-1 3.563-1.062"/><path fill="#273164" d="M305 271h6v6c-1.666.043-3.334.04-5 0-1-1-1-1-1.062-3.562z"/><path fill="#293064" d="M373 203h6v6c-1.666.043-3.334.04-5 0-1-1-1-1-1.062-3.562z"/><path fill="#324470" d="M113 264h1v6h13v1h-13v13h-1a922 922 0 0 1-.562-6.625l-.317-3.727c-.113-3.404.189-6.324.879-9.648"/><path fill="#293064" d="M319 257h5c1.044 3.133.934 3.99 0 7l-5-1z"/><path fill="#6c7487" d="m140 199 2 4h-7l.563 2.438L136 208c-1 1-1 1-4.562 1.063L128 209v-1h6v-7z"/><path fill="#5b6e93" d="M171.563 166.938 175 167v2h-6v6h6v1q-3.5.061-7 0c-1-1-1-1-1.125-4.5.16-4.483.16-4.483 4.688-4.562"/><path fill="#2d2637" d="M311 128h4v2h2l1 4h-7z"/><path fill="#4a83bc" d="M236 114h1v6h6v-5h1v6h-7v7l-3-1h2v-6h-6v-1h6z"/><path fill="#4c4d5f" d="M195 367h1v5h6v1h-6v7h-1v-7h-14v-1h14z"/><path fill="#606072" d="M127 332h1v6h6v1h-6v4h-2v-3l-12-1v-1h13z"/><path fill="#2e3047" d="M182 311v5l-3-2c-2.509-.456-2.509-.456-5.187-.625l-2.731-.227L169 313v5h-1v-6c4.763-.953 9.167-1.083 14-1"/><path fill="#352325" d="M141 298h4l-1 4h6l1 2h-10z"/><path fill="#365d99" d="M107 244v6h-6v-5c3-1 3-1 6-1"/><path fill="#293160" d="M367 210h6v6h-5z"/><path fill="#2b2537" d="M135 203h6v6h-6z"/><path fill="#4f82ad" d="M372 162h1v6h13v1h-13v6h-1v-6h-6v-1h6z"/><path fill="#33212b" d="m270 102-1 3h-10l1-3c3.663-.75 6.424-1.238 10 0"/><path fill="#645d79" d="M386 257h1v7h-7v6h-1v-6h-6v-1h6v-5h1v5h6z"/><path fill="#4f5469" d="m338 134 2 1c.082 4.161-.018 7.947-1 12a105 105 0 0 1-5-4v-2h4z"/><path fill="#443c9e" d="M243 387h6v5h-6z"/><path fill="#443c9d" d="M291 339h6v5h-6z"/><path fill="#282439" d="M128 339h13v6h-4l1-5h-10z"/><path fill="#2e2332" d="M210 319h6v5h-6z"/><path fill="#2d293d" d="M182 318h13v1h-6l-1 4c-3.161-1.37-3.993-1.99-6-5"/><path fill="#3c7ab7" d="M142 292h6v5h-6z"/><path fill="#463c9e" d="M366 264h6v5h-6z"/><path fill="#385ba0" d="M183 163h6v5h-6z"/><path fill="#373c53" d="m322 127 4 1c.082 4.161-.018 7.947-1 12-2-3-2-3-2-5h-2v-2h3v-5z"/><path fill="#322631" d="M360 278h6v6l-5-1z"/><path fill="#2b3062" d="M326 251h6v4l-6 2z"/><path fill="#35609e" d="M156 191h5v5h-6z"/><path fill="#345d9c" d="M223 128v6h-6l1-5c3-1 3-1 5-1"/><path fill="#4375ad" d="M279 120q2.156-.04 4.313-.062l2.425-.036C288 120 288 120 291 121l-1 3v-2h-5l-1 3z"/><path fill="#442f32" d="m182 319 2 1.938c3.857 2.651 6.378 2.749 11 3.062v1h-13z"/><path fill="#886b61" d="M101 291h5v5l-5 1z"/><path fill="#443d9d" d="M346 284h5v5l-5 1z"/><path fill="#39609b" d="M114 236v7h-4v-3h-2v-2c4.875-2 4.875-2 6-2"/><path fill="#da5a98" d="M224 361h4l1 5h-6z"/><path fill="#292436" d="M114 332h13v6h-2v-3h-2v-2h-9z"/><path fill="#3c5893" d="m237 346 4 1 1 4-5 1z"/><path fill="#293061" d="M285 292h6l-1 5h-5z"/><path fill="#443c9b" d="M393 237h6l-1 5h-5z"/><path fill="#8d6b5e" d="M149 332h5v5h-5z"/><path fill="#3c79bc" d="M197 319h5v5h-5z"/><path fill="#d8b4a1" d="M127 306h1v5h6v1h-6v6h-1v-6h-7v-1h7z"/><path fill="#342124" d="M162 306h5v5h-5z"/><path fill="#534e6c" d="M338 298h1v6h6v1h-6v6h-1v-6h-6v-1h6z"/><path fill="#4f84ba" d="M120 230h1v6h6v1h-6v6h-1v-6h-6v-1h6z"/><path fill="#335b9d" d="M239 373h4v6h-4z"/><path fill="#332128" d="M196 327h5l2 4h-7z"/><path fill="#352228" d="M114 285h4v6h-4z"/><path fill="#302c4f" d="M176 352h6v6h6v1h-6l-1 3v-3l-2-1h2v-5h-5z"/><path fill="#365a9d" d="M136 211h5v5h-6z"/><path fill="#423d9e" d="M344 291v5h-5v-4c3-1 3-1 5-1"/><path fill="#355e9e" d="m89 259 3 1c.688 2.063.688 2.063 1 4h-6c.875-3.875.875-3.875 2-5"/><path fill="#355a9c" d="M195 156v5h-5v-4c3-1 3-1 5-1"/><path fill="#475b8b" d="M209 134h7l-2 2h-3v5h-2z"/><path fill="#4c3f59" d="M100 311h7v6l-1-3-6-1z"/><path fill="#315d9f" d="M169 291h6v5h-3c-1.687-2.5-1.687-2.5-3-5"/><path fill="#3a7bbb" d="M129 285h5v5h-4z"/><path fill="#443b9f" d="M353 278h4l1 4-5 1z"/><path fill="#2e4e7b" d="M386 169c2.5 1.313 2.5 1.313 5 3v3h-5z"/><path fill="#43537f" d="M175 168h6a698 698 0 0 1-2.437 3.5l-1.372 1.969L176 175h-1z"/><path fill="#2d2428" d="M272 367h5v5l-4-1z"/><path fill="#30234a" d="M277 359h6a698 698 0 0 1-2.437 3.5l-1.372 1.969L278 366h-1z"/><path fill="#2f242a" d="M291 353v5h-4l-1-4c3-1 3-1 5-1"/><path fill="#453aa1" d="M285 346h4v5h-4z"/><path fill="#8b6b5c" d="M135 325h4l-1 6h-3z"/><path fill="#38589c" d="M101 319h5v4h-5z"/><path fill="#30212d" d="m349 293 3 1v3h-7z"/><path fill="#31242a" d="M354 286h4v5h-4z"/><path fill="#3c5690" d="M141 278h2l.875 1.875c1.062 2.258 1.062 2.258 3.125 4.125h-6z"/><path fill="#2a2f55" d="M120 271h2v3h3l-1 3h-4z"/><path fill="#36629b" d="M386 182h5c-1.37 3.161-1.99 3.993-5 6z"/><path fill="#433aa3" d="M278 353h5v4h-4z"/><path fill="#367cb8" d="M257 312h5v4h-4z"/><path fill="#cca797" d="M113 312v5h-4v-4c2-1 2-1 4-1"/><path fill="#c1a08b" d="M120 305h1v6h-6a318 318 0 0 1 5-6"/><path fill="#3160a2" d="M184 298h5v6a283 283 0 0 1-5-5z"/><path fill="#3b79bc" d="M120 279v4h-5v-3c2-1 2-1 5-1"/><path fill="#28305d" d="M380 244h5v3l-5 1z"/><path fill="#3e5484" d="M145.063 201.938 148 202l-2 2h-3l-1 4h-1a100 100 0 0 1 0-5c1-1 1-1 4.063-1.062"/><path fill="#48393c" d="M196 376h2v2l4-1v3h-6z"/><path fill="#896b5f" d="M127 319v4h-5v-3c3-1 3-1 5-1"/><path fill="#4171ac" d="M295 279h3v5h-5l2-1z"/><path fill="#264275" d="m305 128 3 1c.688 2.063.688 2.063 1 4l-4 1z"/></svg>